<?xml version="1.0" encoding="UTF-8" standalone="no"?>
<!-- Created with Inkscape (http://www.inkscape.org/) -->

<svg
   xmlns:dc="http://purl.org/dc/elements/1.1/"
   xmlns:cc="http://creativecommons.org/ns#"
   xmlns:rdf="http://www.w3.org/1999/02/22-rdf-syntax-ns#"
   xmlns:svg="http://www.w3.org/2000/svg"
   xmlns="http://www.w3.org/2000/svg"
   xmlns:sodipodi="http://sodipodi.sourceforge.net/DTD/sodipodi-0.dtd"
   xmlns:inkscape="http://www.inkscape.org/namespaces/inkscape"
   version="1.1"
   width="50"
   height="50"
   id="svg2"
   inkscape:version="0.48.3.1 r9886"
   sodipodi:docname="octopode.svg">
  <sodipodi:namedview
     pagecolor="#ffffff"
     bordercolor="#666666"
     borderopacity="1"
     objecttolerance="10"
     gridtolerance="10"
     guidetolerance="10"
     inkscape:pageopacity="0"
     inkscape:pageshadow="2"
     inkscape:window-width="705"
     inkscape:window-height="480"
     id="namedview6"
     showgrid="false"
     inkscape:zoom="4.72"
     inkscape:cx="25"
     inkscape:cy="25"
     inkscape:window-x="0"
     inkscape:window-y="22"
     inkscape:window-maximized="0"
     inkscape:current-layer="svg2" />
  <defs
     id="defs4" />
  <metadata
     id="metadata7">
    <rdf:RDF>
      <cc:Work
         rdf:about="">
        <dc:format>image/svg+xml</dc:format>
        <dc:type
           rdf:resource="http://purl.org/dc/dcmitype/StillImage" />
        <dc:title />
      </cc:Work>
    </rdf:RDF>
  </metadata>
  <path
     d="m 17.541584,7.656053 c -0.64533,2.13597 -2.19671,4.140989 -2.15625,6.406249 0.19498,1.48054 -0.20689,3.14247 0.5,4.5 l 1.125,2.125 c 0.03208,0.06111 0.607948,0.449973 1.3125,0.875 0.550902,0.476638 1.153084,1.120614 1.8125,1.8125 -2.138234,-0.667494 -4.789818,-2.717972 -6.71875,-3.21875 -0.95009,0.75284 -1.643661,2.37215 -2.593752,3.125 l 1.125002,4 8,0.875 -7.3125,-4.34375 c 0.45863,-0.5872 0.69761,-0.9128 1.15625,-1.5 2.156453,1.112531 4.718056,2.352076 7.125,3.5625 l -0.40625,2.25 c -1.42981,0.72069 -2.75769,1.06056 -4.1875,1.78125 -2.14535,0.61794 -4.544911,1.06842 -6.7500009,1.46875 l -1.28125,-2.40625 0.9375,-6.9375 -4.4375,6.6875 4.71875,3.96875 c 3.6400909,-0.70192 7.4538609,-0.49305 11.0625009,-1.34375 1.696392,-0.159212 2.369785,-2.615051 3.5,-3.8125 0.355259,0.361158 0.679981,0.677495 1,0.96875 -0.02085,-0.0013 -0.04165,0.0013 -0.0625,0 0.41024,2.02862 0.89758,4.05094 1.5,6.03125 0.42458,1.65614 -0.53735,3.33497 -0.71875,5 -1.04243,0.09866 -2.08257,0.2138 -3.125,0.3125 l -2.75,-2.28125 c -1.09394,-1.36386 -1.58026,-3.15592 -2.4375,-4.6875 l -0.4375,6.03125 4.71875,1.96875 c 1.56008,0.37567 3.20923,0.10298 4.8125,0.21875 l 1.5,-5.90625 c -0.06154,-2.061338 -0.89809,-4.122639 -0.15625,-6.1875 l 0.15625,-0.09375 2.6875,3.71875 4.84375,1.8125 5.531249,-1.78125 1,2.15625 -2.5625,4.96875 2.96875,-1.15625 c 1.0428,-0.67608 1.31122,-2.16008 2.03125,-3.15625 l -2.375,-4.65625 c -2.09274,0.83007 -4.06351,1.07619 -6.156249,1.90625 -0.94915,-0.60939 -2.01961,-0.64061 -2.96875,-1.25 l -1.84375,-3.90625 0.28125,-0.125 c 2.98e-4,-0.01037 -2.98e-4,-0.02088 0,-0.03125 l 5.3125,-1.0625 2.562499,-4.46875 -0.875,-5.78125 2.3125,-0.625 4.5,3.34375 -0.6875,-3.15625 c -0.49835,-1.13848 -1.91478,-1.6282 -2.78125,-2.5 l -4.968749,1.59375 c 0.48034,2.19951 0.14466,4.20674 0.625,6.40625 -0.755,0.83798 -0.71375,1.88077 -1.46875,2.71875 l -4.46875,1.28125 c 0.04055,-1.411933 0.08445,-2.83807 0.125,-4.25 l -1.59375,-6.34375 c -2.55442,-1.87789 -4.99739,-3.96287 -7.625,-5.718749 l -4.9375,-1.1875 z m 4.3125,11.124999 c 1.48345,0.40993 1.43967,0.3459 1.5,0.4375 0.69581,1.05631 0.67271,1.00234 0.71875,1.0625 0,0 0.03067,0.0084 -0.15625,1.5 0,0 -0.8914,0.51371 -0.9375,0.5 -0.47291,-0.14068 -0.98066,-0.37187 -1.03125,-0.40625 -0.186463,-0.126711 -0.508271,-0.276045 -0.875,-0.4375 -0.291602,-0.485097 -0.625,-0.96875 -0.625,-0.96875 0.39314,-1.35354 0.375,-1.375 0.375,-1.375 1.05274,-0.34119 1.03125,-0.3125 1.03125,-0.3125 z"
     id="path3995"
     style="fill:#839496;fill-opacity:0.94117647;stroke:none" />
</svg>
